<svg xmlns="http://www.w3.org/2000/svg" width="60" height="60" viewBox="0 0 60 60">
    <defs>
        <clipPath id="clip-path">
            <path id="Rectangle_37061" fill="#bc6c6c" d="M0 0H60V60H0z" transform="translate(1077 684)"/>
        </clipPath>
        <style>
            .cls-3{fill:#78849e;fill-rule:evenodd;opacity:.8;isolation:isolate}
        </style>
    </defs>
    <g id="com_head_case_ic" clip-path="url(#clip-path)" transform="translate(-1077 -684)">
        <g id="Group_79270" transform="translate(2292.363 -198.081)">
            <path id="Path_70811" d="M-1188.925 887.081h-14.551a1.8 1.8 0 0 0-1.886 1.693v46.606a1.8 1.8 0 0 0 1.886 1.7h14.551a1.8 1.8 0 0 0 1.886-1.7v-46.607a1.8 1.8 0 0 0-1.886-1.692zm-7.28 44.282c-4.019-.272-7.012-3.207-6.686-6.556.289-2.971 3.12-5.33 6.686-5.571 4.018.262 7.02 3.19 6.7 6.539-.276 2.984-3.12 5.354-6.695 5.588zm6.728-17.526h-13.438v-18.253h13.438z" class="cls-3"/>
            <path id="Path_70812" d="M-1167.635 887.081h-14.551a1.8 1.8 0 0 0-1.886 1.693v46.606a1.8 1.8 0 0 0 1.886 1.7h14.551a1.8 1.8 0 0 0 1.886-1.7v-46.607a1.8 1.8 0 0 0-1.886-1.692zm-7.28 44.282c-4.019-.272-7.012-3.207-6.686-6.556.289-2.971 3.12-5.33 6.686-5.571 4.018.262 7.021 3.19 6.705 6.539-.28 2.984-3.125 5.354-6.705 5.588zm6.728-17.526h-13.438v-18.253h13.438z" class="cls-3" transform="translate(.385)"/>
        </g>
    </g>
</svg>
