<svg xmlns="http://www.w3.org/2000/svg" width="98.995" height="98.995" viewBox="0 0 98.995 98.995">
    <defs>
        <style>
            .cls-1{fill:#fff}
        </style>
    </defs>
    <g id="Group_74956" transform="rotate(-135 45.252 39.246)">
        <path id="Path_50672" d="M57.481 70a12.509 12.509 0 0 1-12.51-12.5V25.67l-31.8 1.67a12.5 12.5 0 1 1-1.315-24.97L56.83.02c.11-.01.21 0 .32 0s.22-.02.33-.02.21.01.31.02l.65.03.6.06c.21.03.43.06.64.1s.4.07.59.12l.6.15c.2.06.4.12.59.18s.37.13.55.2c.2.08.39.16.59.25.17.08.34.16.51.25l.57.3c.16.09.32.19.48.29a6.184 6.184 0 0 1 .53.36c.15.11.3.22.45.34.17.13.33.26.49.4s.29.26.43.39.29.28.44.43.27.29.4.44.26.31.39.46l.36.48c.12.16.23.33.34.49s.21.34.31.52.2.35.29.53.18.36.26.54.17.38.25.57.14.37.2.55c.07.21.14.41.2.62.05.18.1.37.14.56.05.22.1.44.14.66l.09.57c.03.23.05.45.07.68.01.1.03.2.03.3v.32c0 .11.02.22.02.33v45A12.526 12.526 0 0 1 57.481 70z" class="cls-1"/>
        <circle id="Ellipse_891" cx="9.5" cy="9.5" r="9.5" class="cls-1" transform="translate(18.957 35.68)"/>
    </g>
</svg>
