<svg xmlns="http://www.w3.org/2000/svg" width="60" height="60" viewBox="0 0 60 60">
    <defs>
        <clipPath id="clip-path">
            <path id="Rectangle_37075" fill="#a13333" d="M0 0H60V60H0z" transform="translate(1305 682)"/>
        </clipPath>
        <style>
            .cls-3,.cls-5{fill:#284f98}.cls-4,.cls-5{stroke:none}
        </style>
    </defs>
    <g id="com_body_atomaticlist_btn" clip-path="url(#clip-path)" transform="translate(-1305 -682)">
        <g id="com_body_atomaticlist_btn-2" transform="translate(1515.484 617.245)">
            <g id="Path_65367" class="cls-3">
                <path d="M-80.258 117.92c-.697 0-1.21-.437-1.58-.817l-4.218-4.341-5.746-5.913c-.254-.262-1.029-1.058-.601-2.212.281-.759.97-1.25 1.754-1.25.369 0 .73.113 1.044.324.244.165.435.354.61.534 2.328 2.394 4.617 4.75 6.823 7.023v-4.012c0-11.21 0-22.802-.005-34.203 0-1.072.421-1.814 1.253-2.204l.202-.094h.99l.223.121c1.152.625 1.151 1.814 1.151 2.205-.008 11.21-.008 22.608-.007 33.63v4.582c2.224-2.296 4.485-4.622 6.95-7.157.496-.511.998-.76 1.535-.76.325 0 .645.094.951.28.45.274.762.704.88 1.212.116.507.024 1.031-.262 1.475-.148.23-.32.417-.454.555-2.868 2.955-5.922 6.1-9.902 10.196-.373.384-.891.825-1.59.825z" class="cls-4" transform="translate(-87.094)"/>
                <path d="M-80.5 71.755c-.545.256-.677.72-.677 1.298.006 13.343.005 26.687.005 40.03v.538l-.13.052c-.108-.136-.206-.283-.326-.407-2.693-2.777-5.388-5.551-8.084-8.324-.141-.145-.287-.29-.452-.402-.154-.104-.322-.152-.485-.152-.348 0-.677.22-.817.596-.183.497.064.842.381 1.168 3.323 3.417 6.643 6.837 9.965 10.254.332.342.597.513.862.513.268 0 .536-.174.874-.522 3.301-3.397 6.602-6.795 9.901-10.195.12-.124.238-.255.331-.4.287-.447.15-1.02-.296-1.29-.147-.09-.289-.136-.432-.136-.258 0-.52.148-.819.457-2.756 2.835-5.513 5.672-8.263 8.514-.104.108-.145.283-.215.426l-.188-.15v-.512c0-13.343-.002-26.687.007-40.03 0-.574-.103-1.042-.627-1.326h-.514m-.446-2h1.467l.446.242c1.112.603 1.675 1.641 1.674 3.085-.008 11.21-.008 22.607-.007 33.63v2.113c1.677-1.729 3.398-3.5 5.232-5.386.685-.705 1.443-1.063 2.253-1.063.51 0 1.005.143 1.47.426.683.415 1.157 1.068 1.335 1.841.178.773.038 1.569-.395 2.24-.196.305-.411.54-.577.711l-9.902 10.197c-.471.484-1.222 1.128-2.309 1.128-1.084 0-1.83-.639-2.297-1.119l-4.218-4.342-5.746-5.912c-.256-.263-.577-.631-.791-1.147-.281-.676-.292-1.406-.031-2.11.428-1.155 1.485-1.901 2.692-1.901.569 0 1.123.17 1.603.494.323.218.565.458.767.666 1.73 1.778 3.438 3.536 5.107 5.254v-1.546c0-11.21 0-22.802-.005-34.203 0-1.959 1.145-2.789 1.829-3.109l.403-.189z" class="cls-5" transform="translate(-87.094)"/>
            </g>
            <g id="Path_65368" class="cls-3">
                <path d="M-203.787 74.551c-.108 0-.202-.007-.295-.023-.691-.12-1.198-.653-1.354-1.428-.149-.735.044-1.418.541-1.924l.058-.062.04-.043.297-.316h19.127l.295.46c.02.03.051.073.086.118.13.172.307.407.407.747.3 1.025-.213 2.124-1.12 2.4-.205.061-.388.07-.525.07l-.064-.001h-17.36l-.043.001-.09.001z" class="cls-4"/>
                <path d="M-204.067 71.755l-.115.122c-.256.26-.358.611-.274 1.025.08.397.279.595.546.64.04.008.082.01.123.01l.132-.003H-186.23c.079 0 .158-.003.234-.026.365-.111.596-.665.45-1.162-.069-.239-.246-.406-.374-.606h-18.147m-.866-2H-184.827l.586.913.046.062c.147.194.419.554.57 1.07.194.663.16 1.383-.096 2.026-.315.792-.932 1.379-1.693 1.61-.335.102-.626.113-.816.113h-17.443c-.038.002-.076.002-.114.002-.165 0-.318-.012-.467-.038-1.095-.189-1.925-1.038-2.163-2.215-.213-1.055.082-2.084.81-2.824l.036-.04.045-.047.593-.632z" class="cls-5"/>
            </g>
            <g id="Path_65369" class="cls-3">
                <path d="M-194.518 186.729l-9.054-.003c-.196 0-.494-.015-.806-.145-.69-.29-1.082-1.03-1.02-1.935.062-.9.612-1.579 1.369-1.692.14-.02.268-.023.364-.023H-186.172c.946.002 1.616.65 1.707 1.655.086.959-.325 1.733-1.074 2.02-.28.107-.549.12-.75.12l-8.229.003z" class="cls-4" transform="translate(-.066 -83.074)"/>
                <path d="M-203.665 183.93c-.073 0-.145.003-.217.013-.284.043-.49.353-.518.771-.031.457.118.823.408.944.134.056.28.068.42.068l9.054.003 8.228-.002c.132 0 .267-.007.393-.055.322-.123.48-.502.435-.997-.043-.484-.285-.743-.711-.743l-4.319-.001h-13.173m0-2H-186.172c1.456.002 2.567 1.057 2.702 2.566.127 1.4-.545 2.595-1.71 3.042-.44.168-.844.188-1.11.188l-8.228.002c-3.019 0-6.036-.001-9.055-.003-.442 0-.832-.073-1.19-.223-1.083-.452-1.723-1.6-1.632-2.926.094-1.378.986-2.428 2.218-2.612.204-.03.38-.034.512-.034z" class="cls-5" transform="translate(-.066 -83.074)"/>
            </g>
            <g id="Path_65370" class="cls-3">
                <path d="M-194.26 130.635c-3.104 0-6.208-.001-9.311-.003-.21 0-.528-.017-.859-.167-.655-.296-1.027-1.027-.968-1.906.057-.858.572-1.534 1.281-1.683.163-.034.306-.038.413-.038h.08l.053.001H-186.174c.974 0 1.646.676 1.714 1.721.06.93-.354 1.678-1.08 1.955-.273.104-.531.118-.748.118l-7.973.002z" class="cls-4" transform="translate(-.066 -41.948)"/>
                <path d="M-203.704 127.838c-.07 0-.139.003-.207.017-.269.056-.463.371-.49.77-.029.44.11.806.383.929.142.064.298.078.448.078 3.103.002 6.206.003 9.31.003 2.657 0 5.314 0 7.972-.002.131 0 .267-.005.393-.053.31-.118.467-.478.437-.955-.033-.51-.28-.786-.717-.786H-203.57l-.133-.001m0-2h.092l.041.001H-186.174c1.496 0 2.611 1.094 2.712 2.657.087 1.363-.589 2.522-1.722 2.953-.427.163-.814.184-1.104.184l-7.973.002c-3.104 0-6.207-.001-9.31-.003-.475 0-.89-.084-1.271-.256-1.045-.472-1.64-1.577-1.554-2.883.087-1.31.92-2.354 2.074-2.595.255-.054.475-.06.618-.06z" class="cls-5" transform="translate(-.066 -41.948)"/>
            </g>
            <g id="Path_65371" class="cls-3">
                <path d="M-199.548 242.818c-1.422 0-2.842 0-4.264-.003-.289 0-.569-.077-.81-.22-.536-.32-.82-.99-.778-1.836.042-.874.472-1.52 1.12-1.689.172-.044.326-.05.442-.05h5.863l2.698.001h.08c.105 0 .426 0 .745.197.503.313.78.912.782 1.689.001.753-.26 1.341-.734 1.656-.252.167-.544.252-.87.252-1.424.002-2.85.003-4.274.003z" class="cls-4" transform="translate(-.066 -125.024)"/>
                <path d="M-197.975 240.02h-5.863c-.065 0-.129.002-.192.019-.204.052-.352.365-.372.769-.021.438.089.806.294.928.094.057.198.08.297.08l4.263.002c1.424 0 2.849 0 4.273-.003.107 0 .219-.02.319-.086.192-.127.286-.44.286-.82 0-.404-.108-.716-.308-.84-.069-.043-.144-.048-.22-.048h-.078-.003l-2.696-.002m0-2c.9 0 1.8 0 2.7.002h.078c.471 0 .899.117 1.271.347.797.495 1.254 1.42 1.256 2.537.002 1.485-.739 2.198-1.18 2.491-.413.273-.904.418-1.422.42l-4.276.002c-1.422 0-2.843 0-4.265-.003-.47 0-.926-.126-1.32-.362-.865-.516-1.326-1.516-1.266-2.743.065-1.327.78-2.326 1.868-2.608.284-.073.532-.082.693-.082h5.863z" class="cls-5" transform="translate(-.066 -125.024)"/>
            </g>
        </g>
    </g>
</svg>
