<svg xmlns="http://www.w3.org/2000/svg" width="80" height="80" viewBox="0 0 80 80">
    <defs>
        <linearGradient id="tcbisdktea" x1=".554" x2=".553" y1="1" gradientUnits="objectBoundingBox">
            <stop offset="0" stop-color="#ff8f00"/>
            <stop offset="1" stop-color="#ffecb3"/>
        </linearGradient>
        <clipPath id="47shrdz82b">
            <path fill="url(#tcbisdktea)" d="M0 0H80V80H0z" transform="translate(-11356 -7080)"/>
        </clipPath>
        <filter id="xsyjwuob9c" width="67.258" height="62.932" x="6" y="12" filterUnits="userSpaceOnUse">
            <feOffset dy="4"/>
            <feGaussianBlur result="blur" stdDeviation="1"/>
            <feFlood/>
            <feComposite in2="blur" operator="in"/>
            <feComposite in="SourceGraphic"/>
        </filter>
    </defs>
    <g clip-path="url(#47shrdz82b)" transform="translate(11356 7080)">
        <g filter="url(#xsyjwuob9c)" transform="translate(-11356 -7080)">
            <path fill="#fff" d="M20.176 194.351a5.882 5.882 0 0 0-5.352-2.914h-6.4v-3.452a4.672 4.672 0 0 0-4.685-4.66h-27.66a4.672 4.672 0 0 0-4.685 4.66v5.144h-6.274a5.883 5.883 0 0 0-5.351 2.911 4.313 4.313 0 0 0 .2 4.1l3.673 6.358c2.105 3.643 6.814 6 12 6h1.432a17.439 17.439 0 0 0 9.388 4.408v6.867a3.658 3.658 0 0 0-3.669 3.65v4.1h-4.342a3.659 3.659 0 0 0-3.669 3.65v4.1H5.926v-4.1a3.659 3.659 0 0 0-3.67-3.65h-4.342v-4.1a3.658 3.658 0 0 0-3.669-3.65v-7A17.5 17.5 0 0 0 4.394 210.8c5.148-.026 9.815-2.372 11.908-5.995l3.672-6.355a4.31 4.31 0 0 0 .202-4.099zm-53.158 10.212l-3.756-6.5a.237.237 0 0 1 0-.3A2.2 2.2 0 0 1-34.88 197h6.274v2.686a17.215 17.215 0 0 0 2.411 8.784c-3.005-.431-5.618-1.885-6.787-3.907zm29.54 6.31a1.8 1.8 0 0 1-2.48-2.511A15.831 15.831 0 0 0-3.1 199.32v-9.269h-19.65v-1.566H-.208a3.654 3.654 0 0 1 3.665 3.645v5.623a15.841 15.841 0 0 1-2.923 9.173H.316v.3a16.223 16.223 0 0 1-3.759 3.646zm20.126-14.5l-3.758 6.5a8.916 8.916 0 0 1-5.964 3.775 17.238 17.238 0 0 0 1.466-6.961v-4.377h6.4a2.2 2.2 0 0 1 1.863.763.238.238 0 0 1-.007.295z" transform="translate(49.66 -171.32)"/>
        </g>
    </g>
</svg>
