<svg xmlns="http://www.w3.org/2000/svg" width="120" height="120" viewBox="0 0 120 120">
    <defs>
        <linearGradient id="ycvurf42qa" x1=".5" x2=".5" y2="1" gradientUnits="objectBoundingBox">
            <stop offset="0" stop-color="#c1c1c1"/>
            <stop offset="1" stop-color="#efefef"/>
        </linearGradient>
    </defs>
    <g>
        <path fill="url(#ycvurf42qa)" d="M-15268.793-18250.32a19.078 19.078 0 0 0-7.209 13.445v101.8l120-119.934h-98.875s-6.842-.981-13.916 4.689z" transform="translate(-72 -2312.93) translate(15348.002 20568)"/>
        <path fill="#fff" d="M219.351 429.7v-1.372c0-4.763-.013-9.526.007-14.289.009-1.971.814-3.04 2.353-3.265 2.221-.325 3.634.77 3.651 2.951.036 4.85.013 9.7.014 14.551v1.507l1.693.071v-1.493-11.93a10.81 10.81 0 0 1 .068-1.438 2.806 2.806 0 0 1 2.923-2.655 2.9 2.9 0 0 1 2.925 2.971c.029 4.327.01 8.652.011 12.978v1.494l1.693.083c.025-.524.066-.983.067-1.443.007-2.666-.012-5.331.01-8a2.685 2.685 0 0 1 2.731-2.8 2.771 2.771 0 0 1 3.027 2.676c.033 8.521.085 17.042-.02 25.562-.046 3.745-2.664 6.492-6.75 6.707-5.262.276-10.556.086-15.835.028a6.691 6.691 0 0 1-4.519-1.994q-7.314-6.821-14.6-13.668a1.856 1.856 0 0 1-.23-.331 2.907 2.907 0 0 1 .254-.323c3.08-2.964 3.248-2.988 7.1-.966 1.883.99 3.762 1.987 5.822 3.075.031-.667.073-1.13.073-1.592 0-6.249 0-12.5.01-18.747a2.794 2.794 0 0 1 2.349-3.013 2.881 2.881 0 0 1 3.528 2.842c.033 3.583.042 7.167-.007 10.749-.016 1.074.354 1.463 1.652 1.074z" transform="translate(-72 -2312.93) translate(-117.568 1908.422)"/>
    </g>
</svg>
