<svg xmlns="http://www.w3.org/2000/svg" width="120" height="120" viewBox="0 0 120 120">
    <defs>
        <linearGradient id="tl84c39pna" x1=".5" x2=".5" y2="1" gradientUnits="objectBoundingBox">
            <stop offset="0" stop-color="#ff8f00"/>
            <stop offset="1" stop-color="#ffecb3"/>
        </linearGradient>
    </defs>
    <g>
        <path fill="url(#tl84c39pna)" d="M-15276-18255v120l120-120z" transform="translate(0 -1053) translate(15276 19308)"/>
        <path fill="#fff" d="M1416.194 566.6c2.818-.638 9.886-.578 12.162.1.215 1.4.448 2.907.675 4.414a4.857 4.857 0 0 0 6.443 3.8c1.146-.419 2.269-.895 3.426-1.278a1.884 1.884 0 0 1 2.516.7c1.636 2.813 3.264 5.63 5.034 8.685-1.609 1.291-3.083 2.459-4.54 3.645a4.7 4.7 0 0 0 .118 7.008q1.563 1.167 3.159 2.291a1.6 1.6 0 0 1 .53 2.423c-1.448 2.44-2.866 4.9-4.277 7.357a1.865 1.865 0 0 1-2.626.913c-1.124-.47-2.294-.852-3.368-1.412-1.305-.681-2.331-.406-3.647.187-2.044.922-2.669 2.337-2.883 4.364-.569 5.357-.555 4.214-4.989 4.324-1.746.044-3.5.025-5.243 0-2.4-.031-2.518-.146-2.84-2.359a24.267 24.267 0 0 1-.4-2.791 3.607 3.607 0 0 0-2.07-3.18c-1.9-1.226-3.409-1-5.31-.149-4.339 1.934-3.891 1.95-6.167-1.944-1-1.708-1.952-3.439-2.979-5.129a1.816 1.816 0 0 1 .668-2.829c.584-.374 1.092-.875 1.7-1.193a4.571 4.571 0 0 0 2.687-4.966 3.74 3.74 0 0 0-1.666-3.174c-.925-.644-1.808-1.348-2.68-2.06-1.416-1.154-1.484-1.38-.576-3.013q1.814-3.267 3.749-6.47c.931-1.54 1.4-1.676 3.238-1.067 1.24.411 2.444.924 3.682 1.338 2.139.715 5.286-1.2 5.637-3.4.281-1.748.57-3.5.837-5.135zm13.362 23.647a7.193 7.193 0 0 0-7.035-7.447 7.581 7.581 0 0 0-7.681 7.223 7.213 7.213 0 0 0 7.325 7.17c4.293.078 7.357-2.803 7.391-6.947z" transform="translate(0 -1053) translate(-1386.876 498.549)"/>
    </g>
</svg>
