<svg xmlns="http://www.w3.org/2000/svg" xmlns:xlink="http://www.w3.org/1999/xlink" width="1120" height="572" viewBox="0 0 1120 572">
    <defs>
        <linearGradient id="linear-gradient" x2="1" y1=".5" y2=".5" gradientUnits="objectBoundingBox">
            <stop offset="0" stop-color="#6e7cf9"/>
            <stop offset=".634" stop-color="#80d6ff"/>
            <stop offset="1" stop-color="#96ddff"/>
        </linearGradient>
        <linearGradient id="linear-gradient-2" x2="1" y1=".5" y2=".5" gradientUnits="objectBoundingBox">
            <stop offset="0" stop-color="#5f69ef"/>
            <stop offset="1" stop-color="#ccaaf7"/>
        </linearGradient>
        <linearGradient id="linear-gradient-3" x2="1" y1=".5" y2=".5" gradientUnits="objectBoundingBox">
            <stop offset="0" stop-color="#05aeff"/>
            <stop offset=".164" stop-color="#08afff"/>
            <stop offset=".31" stop-color="#13b2ff"/>
            <stop offset=".449" stop-color="#25b8ff"/>
            <stop offset=".583" stop-color="#3fc0ff"/>
            <stop offset=".715" stop-color="#60cbff"/>
            <stop offset=".845" stop-color="#88d8ff"/>
            <stop offset=".97" stop-color="#b7e7ff"/>
            <stop offset=".995" stop-color="#c2ebff"/>
        </linearGradient>
        <linearGradient id="linear-gradient-4" x2="1" y1=".5" y2=".5" gradientUnits="objectBoundingBox">
            <stop offset="0" stop-color="#6e7cf9"/>
            <stop offset=".229" stop-color="#6e7ff9"/>
            <stop offset=".433" stop-color="#708af9"/>
            <stop offset=".627" stop-color="#749cfb"/>
            <stop offset=".815" stop-color="#79b5fc"/>
            <stop offset=".995" stop-color="#80d6ff"/>
        </linearGradient>
        <linearGradient id="linear-gradient-5" x1=".139" x2=".885" y1=".172" y2=".85" xlink:href="#linear-gradient-2"/>
        <linearGradient id="linear-gradient-8" x1="-2.335" x2="-1.574" y1="1.79" y2="1.79" xlink:href="#linear-gradient-4"/>
        <linearGradient id="linear-gradient-9" x2="1" y1=".5" y2=".5" gradientUnits="objectBoundingBox">
            <stop offset=".005" stop-color="#5f69ef"/>
            <stop offset="1" stop-color="#3ecfff"/>
        </linearGradient>
        <linearGradient id="linear-gradient-10" x1=".024" x2=".911" y1=".944" y2=".387" gradientUnits="objectBoundingBox">
            <stop offset="0" stop-color="#465cdb"/>
            <stop offset="1" stop-color="#5f69ef"/>
        </linearGradient>
        <linearGradient id="linear-gradient-11" x2="1" y1=".5" y2=".5" gradientUnits="objectBoundingBox">
            <stop offset="0" stop-color="#6e7cf9"/>
            <stop offset=".995" stop-color="#80d6ff"/>
        </linearGradient>
        <linearGradient id="linear-gradient-12" x1=".127" x2=".898" y1=".161" y2=".861" gradientUnits="objectBoundingBox">
            <stop offset="0" stop-color="#ff8f00"/>
            <stop offset="1" stop-color="#ffecb3"/>
        </linearGradient>
        <linearGradient id="linear-gradient-13" x2="1" y1=".5" y2=".5" gradientUnits="objectBoundingBox">
            <stop offset=".005" stop-color="#80d6ff"/>
            <stop offset=".45" stop-color="#78b0fc"/>
            <stop offset="1" stop-color="#6e7cf9"/>
        </linearGradient>
        <linearGradient id="linear-gradient-14" x2="1" y1=".5" y2=".5" gradientUnits="objectBoundingBox">
            <stop offset="0" stop-color="#6e7cf9"/>
            <stop offset=".256" stop-color="#6e7ff9"/>
            <stop offset=".454" stop-color="#7088f9"/>
            <stop offset=".634" stop-color="#7399fa"/>
            <stop offset=".801" stop-color="#78b0fc"/>
            <stop offset=".96" stop-color="#7ecefe"/>
            <stop offset=".995" stop-color="#80d6ff"/>
        </linearGradient>
        <linearGradient id="linear-gradient-15" x2="1" y1=".5" y2=".5" gradientUnits="objectBoundingBox">
            <stop offset="0" stop-color="#ff9e80"/>
            <stop offset="1" stop-color="#fff3e0"/>
            <stop offset="1" stop-color="#b3e5fc"/>
        </linearGradient>
        <linearGradient id="linear-gradient-16" x1=".5" x2=".5" y1="0" y2="1" xlink:href="#linear-gradient-15"/>
        <linearGradient id="linear-gradient-17" x2="1" y1=".5" y2=".5" gradientUnits="objectBoundingBox">
            <stop offset="0" stop-color="#ffa184"/>
            <stop offset=".229" stop-color="#ffae92"/>
            <stop offset=".433" stop-color="#ffad91"/>
            <stop offset=".627" stop-color="#ffe2cd"/>
            <stop offset=".815" stop-color="#ffecd9"/>
            <stop offset="1" stop-color="#ffe3ce"/>
        </linearGradient>
        <linearGradient id="linear-gradient-25" x1=".127" x2=".898" y1=".161" y2=".861" xlink:href="#linear-gradient-2"/>
        <linearGradient id="linear-gradient-30" x1="0" y1=".5" y2=".5" xlink:href="#linear-gradient-4"/>
        <linearGradient id="linear-gradient-32" x1="-2.027" x2="-1.21" y1="-.189" y2="-.189" gradientUnits="objectBoundingBox">
            <stop offset=".005" stop-color="#80d6ff"/>
            <stop offset=".185" stop-color="#79b5fc"/>
            <stop offset=".373" stop-color="#749cfb"/>
            <stop offset=".567" stop-color="#708af9"/>
            <stop offset=".771" stop-color="#6e7ff9"/>
            <stop offset="1" stop-color="#6e7cf9"/>
        </linearGradient>
        <linearGradient id="linear-gradient-33" x1="-1.978" x2="-1.161" y1="-.154" y2="-.154" xlink:href="#linear-gradient-4"/>
        <linearGradient id="linear-gradient-34" x1=".021" x2=".912" y1=".927" y2=".371" xlink:href="#linear-gradient-10"/>
        <linearGradient id="linear-gradient-35" x1=".5" x2=".5" y1=".285" y2="1.39" gradientUnits="objectBoundingBox">
            <stop offset="0" stop-color="#4853db"/>
            <stop offset="1" stop-color="#5b6bf1"/>
        </linearGradient>
        <linearGradient id="linear-gradient-36" x1="0" x2="1" y1=".5" y2=".5" xlink:href="#linear-gradient-32"/>
        <style>
            .cls-3{fill:url(#linear-gradient)}.cls-5{fill:#465cdb;opacity:.3}.cls-6{fill:url(#linear-gradient-3)}.cls-7{fill:url(#linear-gradient-4)}.cls-8{fill:#b3e5f7}.cls-10{fill:#48c5ff}.cls-12{fill:url(#linear-gradient-9)}.cls-13{fill:url(#linear-gradient-10)}.cls-14{fill:url(#linear-gradient-11)}.cls-15{fill:#00b7ff}.cls-17{fill:url(#linear-gradient-13)}.cls-18{fill:url(#linear-gradient-14)}.cls-19{fill:url(#linear-gradient-15)}.cls-20{fill:url(#linear-gradient-16)}.cls-27{fill:#6bd0ff}.cls-30{fill:#ab6df7}.cls-31{fill:#87d9ff}.cls-36{fill:#5ca8fd}
        </style>
    </defs>
    <g id="com_body_noitem_img" transform="translate(-160 -636)">
        <g id="Group_79416" transform="translate(220.253 596.873)">
            <g id="Group_79397">
                <path id="Path_70886" d="M942.78 433.579l-3.77 2.21-10.368 6.079-15.5 9.088-19.325 11.33-21.7 12.722-22.58 13.242-22.212 13.024-20.358 11.936-17.044 9.99-12.433 7.291-6.352 3.724q-1.137.666-2.276 1.326l-2.591 1.505c-.145.084-.44.343-.6.334-.124-.007-.345-.2-.449-.259l-7.492-4.321-14.807-8.549-19.686-11.366L700.91 500l-22.541-13.014-20.324-11.734-15.873-9.164-8.98-5.185-1.166-.673q3.336-1.939 6.667-3.884l8.359-4.9 13.958-8.184 18.239-10.694 21.074-12.356 22.425-13.149 22.513-13.2 21.121-12.384 18.266-10.71 14.121-8.28 8.5-4.985a8.075 8.075 0 0 1 1.7-1c.28-.071.308 0 .617.179l7.49 4.317 14.807 8.548 19.686 11.366 22.331 12.895 22.541 13.014 20.324 11.733 15.872 9.164 8.981 5.185z" style="mix-blend-mode:multiply;isolation:isolate" fill="#d9d9d9"/>
                <g id="Group_79396">
                    <g id="Group_79395">
                        <g id="Group_79394">
                            <path id="Path_70887" d="M771.05 517.755q-27.742-16.045-55.77-31.59-27.87-15.543-55.843-30.9-15.778-8.694-31.551-17.4c15.331-8.255 30.853-16.151 46.227-24.327 15.052-8 29.987-16.252 44.5-25.208a361 361 0 0 0 42.153-29.874c13.136-10.98 25.311-23.3 35.083-37.4a122.538 122.538 0 0 0 19.995-46.333q.6-3.087 1.02-6.2 17.409 9.138 34.838 18.24 17.512 9.17 34.969 18.442 17.385 9.276 34.618 18.83 8.556 4.755 17.064 9.592 2.2 1.25 4.4 2.506a15.926 15.926 0 0 1 2.124 1.216c.22.177.2.074.28.328a2.171 2.171 0 0 1-.031.655q-.037.732-.084 1.464-.316 4.9-1.083 9.758a117.721 117.721 0 0 1-12.715 37.023A168.774 168.774 0 0 1 908.188 419a267.894 267.894 0 0 1-28.731 27.473c-10.311 8.589-21.116 16.574-32.179 24.166-10.833 7.433-21.922 14.487-33.126 21.347-11.483 7.03-23.095 13.844-34.666 20.729q-4.223 2.513-8.431 5.048c-1.397-.813 1.201-.736-.005-.008z" class="cls-3"/>
                            <path id="Path_70888" fill="url(#linear-gradient-2)" d="M943.379 336.485q-24.54-14.038-49.456-27.4c-16.482-8.857-33.06-17.533-49.639-26.206q-13.715-7.174-27.422-14.36a119.114 119.114 0 0 1-17.371 47.009c-9.13 14.584-20.911 27.357-33.792 38.7a331.475 331.475 0 0 1-41.386 30.535c-14.747 9.379-29.994 17.948-45.389 26.21s-30.97 16.2-46.4 24.41q-2.324 1.238-4.643 2.486 18.435 10.185 36.888 20.337 18.359 10.119 36.7 20.281 18.25 10.128 36.439 20.368 9.118 5.141 18.211 10.329 4.593 2.621 9.178 5.258l4.5 2.595a4.981 4.981 0 0 0 1.111.642c.328.061.69-.252 1.008-.444l1.8-1.082c12.2-7.318 24.484-14.479 36.641-21.861 11.861-7.2 23.609-14.6 35.082-22.4 11.7-7.961 23.122-16.349 34-25.408a263.736 263.736 0 0 0 30.352-29.311 163 163 0 0 0 23.228-34.044 114.832 114.832 0 0 0 11.622-38.756q.238-2.214.385-4.436c.025-.389.049-.778.07-1.167a3.858 3.858 0 0 0 .061-1.255c-.178-.345-1.442-.826-1.78-1.02zM773.792 513.971q-27-15.677-54.27-30.88-26.949-15.1-54-30.027-15.326-8.485-30.648-16.977c14.168-7.52 28.455-14.813 42.613-22.352 14.136-7.527 28.159-15.285 41.816-23.655a379.288 379.288 0 0 0 39.053-27.063 210 210 0 0 0 33.725-33.217 131.052 131.052 0 0 0 22.479-41.18q.858-2.689 1.581-5.418 16.323 8.523 32.663 17.014 16.644 8.667 33.244 17.417Q898.434 326.3 914.7 335.2q8.088 4.434 16.136 8.939 4.1 2.3 8.2 4.613l1.973 1.117c.334.19.761.318.83.645a4.06 4.06 0 0 1-.232 1.259q-.426 2.248-.948 4.477a123.289 123.289 0 0 1-14 34.264 177.191 177.191 0 0 1-22.3 29.7 274.768 274.768 0 0 1-27.593 25.956c-9.8 8.105-20.038 15.673-30.512 22.883-10.2 7.025-20.639 13.707-31.185 20.2-10.982 6.766-22.091 13.32-33.184 19.9q-4.05 2.4-8.093 4.817c-1.392-.807 1.246-.744 0 .001z"/>
                        </g>
                    </g>
                </g>
            </g>
            <path id="Path_70889" d="M296.01 561.26L60.43 425.245c-8.911-5.145-8.911-13.487 0-18.632l349.56-201.825c8.912-5.145 23.36-5.145 32.272 0L677.841 340.8c8.912 5.145 8.912 13.487 0 18.632L328.281 561.26c-8.911 5.146-23.36 5.146-32.271 0z" class="cls-5"/>
            <path id="Path_70890" d="M303.806 545.668L68.226 409.652c-8.911-5.145-8.911-13.487 0-18.632L417.787 189.2c8.911-5.145 23.359-5.145 32.271 0l235.58 136.016c8.911 5.145 8.911 13.487 0 18.633L336.077 545.668c-8.911 5.145-23.359 5.145-32.271 0z" class="cls-6"/>
            <path id="Path_70891" d="M303.806 541.941L68.226 405.926c-8.911-5.146-8.911-13.488 0-18.633l349.561-201.824c8.911-5.145 23.359-5.145 32.271 0l235.58 136.016c8.911 5.145 8.911 13.487 0 18.632L336.077 541.941c-8.911 5.145-23.359 5.145-32.271 0z" class="cls-7"/>
            <g id="Group_79398">
                <path id="Path_70892" d="M365.387 475.008a36.084 36.084 0 0 0-11.446-9.882c-20.685-11.942-54.22-11.942-74.9 0a36.084 36.084 0 0 0-11.446 9.882h-4.036v11.37q-.007.372 0 .744v.828h.068c.5 7.421 5.6 14.758 15.414 20.424 20.685 11.942 54.22 11.942 74.9 0 9.813-5.666 14.912-13 15.414-20.424h.1v-12.942zm-32.677 21.108c-8.959 5.172-23.484 5.172-32.443 0s-8.959-13.559 0-18.732 23.484-5.172 32.443 0 8.959 13.559 0 18.732z" class="cls-8"/>
                <path id="Path_70893" fill="url(#linear-gradient-5)" d="M353.941 454.327c-20.685-11.943-54.22-11.943-74.9 0s-20.684 31.3 0 43.247 54.22 11.942 74.9 0 20.684-31.305 0-43.247zm-21.231 30.989c-8.959 5.173-23.484 5.173-32.443 0s-8.959-13.559 0-18.731 23.484-5.173 32.443 0 8.959 13.558 0 18.731z"/>
            </g>
            <path id="Path_70894" d="M410.235 366.74l-153.2-88.456L68.226 387.293c-8.911 5.145-8.911 13.487 0 18.633l154.916 89.442a27.744 27.744 0 0 0 3.64-1.735l183.453-105.919c10.032-5.792 10.032-15.183 0-20.974z" class="cls-5"/>
            <path id="Path_70895" d="M196.573 169.628l-69.91 40.363c-7.02 4.054-7.02 10.625 0 14.678l62.283 35.961c7.02 4.053 18.4 4.053 25.422 0l57.2-33.025c7.02-4.053 18.4-4.053 25.421 0l27.964 16.145c7.02 4.053 18.4 4.053 25.422 0l128.38-74.123c7.02-4.053 7.02-10.624 0-14.678L363.087 88.166c-7.021-4.053-18.4-4.053-25.422 0z" class="cls-7"/>
            <g id="Group_79399">
                <path id="Path_70896" d="M201.657 261.33a23.817 23.817 0 0 1-11.541-2.726l-62.284-35.96c-2.6-1.5-4.094-3.44-4.094-5.313s1.492-3.812 4.094-5.315l211-121.825a25.8 25.8 0 0 1 23.083 0l115.67 66.783c2.6 1.5 4.094 3.44 4.094 5.315s-1.492 3.81-4.094 5.313L349.2 241.725a25.8 25.8 0 0 1-23.083 0l-27.964-16.146a30.407 30.407 0 0 0-27.761 0L213.2 258.6a23.827 23.827 0 0 1-11.543 2.73zM350.376 89.024a22.243 22.243 0 0 0-10.763 2.518l-211 121.825c-2.076 1.2-3.315 2.681-3.315 3.964s1.239 2.763 3.315 3.963l62.287 35.959a24.257 24.257 0 0 0 21.524 0l57.2-33.024a31.949 31.949 0 0 1 29.32 0l27.956 16.145a24.266 24.266 0 0 0 21.524 0l128.381-74.122c2.076-1.2 3.315-2.681 3.315-3.963s-1.239-2.765-3.315-3.964L361.137 91.542a22.235 22.235 0 0 0-10.761-2.518z" class="cls-10"/>
            </g>
            <path id="Path_70897" d="M196.573 362.869l-69.91 40.364c-7.02 4.053-7.02 10.625 0 14.678l62.283 35.96c7.02 4.054 18.4 4.054 25.422 0l57.2-33.025c7.02-4.053 18.4-4.053 25.421 0l27.964 16.146c7.02 4.053 18.4 4.053 25.422 0l128.38-74.123c7.02-4.053 7.02-10.625 0-14.678l-115.668-66.783c-7.021-4.053-18.4-4.053-25.422 0z" class="cls-5"/>
            <path id="Path_70898" d="M483.857 163.609c-.487 2.2-2.175 4.329-5.1 6.018L350.375 243.75c-7.02 4.053-18.4 4.053-25.422 0L296.99 227.6c-7.021-4.053-18.4-4.053-25.422 0l-57.2 33.025c-7.02 4.053-18.4 4.053-25.422 0l-62.283-35.961c-3.51-2.026-5.265-4.682-5.265-7.339V396.01h.025c-.142 2.759 1.593 5.544 5.24 7.649l62.283 35.961c7.02 4.053 18.4 4.053 25.422 0l57.2-33.025c7.02-4.053 18.4-4.053 25.422 0l27.963 16.145c7.02 4.053 18.4 4.053 25.422 0l128.38-74.123c5.244-3.027 5.1-6.911 5.1-6.911z" class="cls-3"/>
            <g id="Group_79401">
                <path id="Path_70899" d="M601.133 374.906c-14.892 8.6-39.122 8.6-54.013 0l-38.743-22.37c-14.892-8.6-14.892-22.587 0-31.185l38.745-22.37c14.891-8.6 39.121-8.6 54.012 0l38.744 22.369c14.891 8.6 14.892 22.587 0 31.185z" class="cls-5"/>
                <path id="Path_70900" fill="url(#linear-gradient-8)" d="M601.133 367.109c-14.892 8.6-39.122 8.6-54.013 0l-38.743-22.369c-14.892-8.6-14.892-22.587 0-31.185l38.745-22.37c14.891-8.6 39.121-8.6 54.012 0l38.744 22.369c14.891 8.6 14.892 22.587 0 31.185z"/>
                <path id="Path_70901" d="M626.379 336.948l-38.748 22.36a20.765 20.765 0 0 1-3.68 1.653 31.352 31.352 0 0 1-19.647 0 20.755 20.755 0 0 1-3.679-1.653l-38.748-22.36c-7.454-4.3-7.454-11.289 0-15.593l38.748-22.375a20.755 20.755 0 0 1 3.679-1.653 31.352 31.352 0 0 1 19.647 0 20.765 20.765 0 0 1 3.68 1.653l38.748 22.375c7.453 4.304 7.453 11.289 0 15.593z" class="cls-12"/>
                <path id="Path_70902" d="M521.88 329.147l38.744-22.369c7.458-4.306 19.549-4.306 27.007 0l38.743 22.369a12.6 12.6 0 0 1 4.347 3.9c2.569-3.929 1.131-8.532-4.347-11.694l-38.743-22.37c-7.458-4.306-19.549-4.306-27.007 0l-38.744 22.37c-5.477 3.162-6.915 7.765-4.347 11.694a12.615 12.615 0 0 1 4.347-3.9z" class="cls-13"/>
                <path id="Path_70903" d="M583.951 210.335v150.626a31.352 31.352 0 0 1-19.647 0V210.335z" class="cls-14"/>
                <path id="Path_70904" d="M581.089 206.312c3.846 2.221 3.846 5.821 0 8.041a15.392 15.392 0 0 1-13.926 0c-3.846-2.22-3.846-5.82 0-8.041a15.392 15.392 0 0 1 13.926 0z" class="cls-15"/>
                <g id="Group_79400">
                    <path id="Path_70905" fill="url(#linear-gradient-12)" d="M621.857 280.956c0-4.686 6.1-8.564 13.964-9.13a31.08 31.08 0 0 0-6.881-9.6c-6.248 2.815-15.311 2.572-21.06-.754s-6.181-8.55-1.307-12.159a92.817 92.817 0 0 0-16.629-3.972c-.539 2.464-2.761 4.632-5.993 6.073v16.426a29.335 29.335 0 0 1 7.676 3.017c9.668 5.575 9.668 14.623 0 20.211a29.278 29.278 0 0 1-7.676 3 41.769 41.769 0 0 1-19.646 0 29.285 29.285 0 0 1-7.675-3c-9.669-5.588-9.669-14.636 0-20.211a29.342 29.342 0 0 1 7.675-3.017v-16.414c-3.232-1.454-5.453-3.622-5.992-6.086a92.829 92.829 0 0 0-16.63 3.972c4.875 3.609 4.444 8.833-1.306 12.159s-14.812 3.569-21.074.754a31.025 31.025 0 0 0-6.867 9.6c7.864.566 13.95 4.444 13.95 9.13s-6.086 8.564-13.95 9.13a31.071 31.071 0 0 0 6.864 9.615c6.262-2.814 15.311-2.572 21.074.754s6.181 8.537 1.293 12.159a95.624 95.624 0 0 0 16.643 3.973c.539-2.478 2.76-4.646 5.992-6.1a25.445 25.445 0 0 1 19.646.013c3.232 1.441 5.454 3.609 5.993 6.087a95.185 95.185 0 0 0 16.629-3.973c-4.874-3.622-4.443-8.846 1.307-12.159s14.839-3.559 21.087-.745a31.051 31.051 0 0 0 6.854-9.623c-7.861-.566-13.961-4.431-13.961-9.13z"/>
                    <path id="Path_70906" d="M556.63 270.857a29.319 29.319 0 0 1 7.675-3v13.452a29.376 29.376 0 0 0-7.675 3.016 18.2 18.2 0 0 0-4.336 3.367c-5.009-5.403-3.568-12.284 4.336-16.835z" class="cls-17"/>
                    <path id="Path_70907" d="M595.963 287.689a18.768 18.768 0 0 0-4.336-3.367 29.369 29.369 0 0 0-7.676-3.016v-13.452a29.312 29.312 0 0 1 7.676 3c7.904 4.554 9.331 11.435 4.336 16.835z" class="cls-18"/>
                    <path id="Path_70908" d="M623.173 277.324a7.212 7.212 0 0 0-.546.841l-.014.024a6.358 6.358 0 0 0-.375.816c-.013.032-.028.063-.039.1a5.673 5.673 0 0 0-.212.77c-.011.053-.029.106-.039.159a5.457 5.457 0 0 0-.085.931 5.3 5.3 0 0 0 .079.863c.021.126.053.251.082.376.034.141.072.281.117.42.052.167.11.331.178.494.025.061.056.119.083.179a9.992 9.992 0 0 0 4.544 4.4 22.379 22.379 0 0 1 8.874-2.4v-13.469c-5.7.412-10.453 2.56-12.647 5.496z" class="cls-19"/>
                    <path id="Path_70909" d="M635.821 290.086v13.465a31.13 31.13 0 0 1-6.881 9.615V299.7a31.127 31.127 0 0 0 6.881-9.614z" class="cls-20"/>
                    <path id="Path_70910" fill="url(#linear-gradient-17)" d="M628.94 299.7v13.466c-6.248-2.815-15.311-2.572-21.06.754a10.479 10.479 0 0 0-1.307.861c-4.483 3.3-4.47 7.972 0 11.3a95.183 95.183 0 0 1-16.629 3.972c-.983-4.551-7.689-8.066-15.822-8.066s-14.826 3.515-15.809 8.066a95.623 95.623 0 0 1-16.643-3.972c4.5-3.326 4.5-8.012 0-11.311a11.99 11.99 0 0 0-1.293-.848c-5.763-3.326-14.812-3.569-21.074-.754a31.075 31.075 0 0 1-6.867-9.615c2.128-.148 2.06-5.48 2.788-8.578a36.19 36.19 0 0 0 4.076 4.725 21.73 21.73 0 0 1 5.064-1.535c.309.108.552.094.7-.108a.269.269 0 0 0 .107-.013 28.635 28.635 0 0 1 3.892-.283h.162c.6 0 1.211.027 1.8.067a.483.483 0 0 1 .148.014c.646.04 1.293.121 1.926.215a.507.507 0 0 1 .148.027c.538.081 1.063.175 1.575.3.148.027.283.054.431.1a16.659 16.659 0 0 1 1.67.471 1.007 1.007 0 0 1 .188.067c.472.162.9.323 1.347.5a2.77 2.77 0 0 0 .3.135c.054.027.108.041.148.067a14.773 14.773 0 0 1 1.455.741h.013a11.784 11.784 0 0 1 1.05.673 10.059 10.059 0 0 1 2.289 2.155 7.763 7.763 0 0 1 .62.983c.04.094.094.188.135.283a6.267 6.267 0 0 1 .377 1.009.412.412 0 0 1 .027.122 4.817 4.817 0 0 1 .134.983 2.691 2.691 0 0 1 .014.336 5.394 5.394 0 0 1-.081.929c-.027.108-.054.229-.081.337a5.518 5.518 0 0 1-.2.673c-.054.135-.121.256-.175.391-.081.175-.162.336-.256.511-.081.135-.161.27-.256.4a5.824 5.824 0 0 1-.363.5c-.1.121-.175.242-.283.363a7.9 7.9 0 0 1-.754.754 2.147 2.147 0 0 1-.175.162c-.229.2-.472.4-.727.592l.04.014c1.387.471 2.8.9 4.228 1.306.027.013.041.013.067.027 1.482.417 2.99.794 4.5 1.144 1.051.243 2.114.472 3.178.674.363.081.727.134 1.091.2.444.08.875.175 1.319.242a.1.1 0 0 1 .068.014c.713.121 1.427.242 2.154.35.027-.108.067-.216.094-.31a4.615 4.615 0 0 1 .229-.687c0-.027.014-.04.027-.067.081-.175.148-.35.243-.512a2.531 2.531 0 0 1 .188-.31 4.651 4.651 0 0 1 .269-.43c.054-.068.108-.148.162-.229l.4-.485c.094-.108.188-.2.269-.3s.189-.175.283-.27a.639.639 0 0 1 .094-.094c.121-.121.256-.229.391-.35.107-.094.215-.175.337-.269s.269-.216.4-.31a2.988 2.988 0 0 1 .256-.175 1.172 1.172 0 0 0 .108-.067c.2-.135.39-.27.606-.391a.522.522 0 0 1 .121-.067c.35-.2.727-.4 1.118-.593a.1.1 0 0 1 .054-.027q.525-.263 1.09-.484c.081-.027.162-.054.229-.081.337-.135.674-.256 1.024-.364a3.056 3.056 0 0 1 .323-.107c.336-.108.673-.2 1.023-.283a1.717 1.717 0 0 1 .242-.068h.014c.377-.094.754-.175 1.158-.255a.575.575 0 0 1 .067-.014c.337-.067.674-.121 1.024-.175.067-.013.134-.013.2-.027h.027c.417-.067.834-.107 1.252-.148a43.816 43.816 0 0 0 4.969 0h.013c.418.041.822.081 1.239.148h.027c.054.014.108.014.161.027.351.054.7.108 1.051.175.027 0 .054.014.081.014.39.08.78.161 1.158.255h.013a2.241 2.241 0 0 0 .283.068c.323.094.646.175.956.269.121.041.256.081.377.121.323.108.646.229.97.35.08.027.175.068.269.108.337.135.673.283 1 .431.054.027.108.054.175.081.323.161.62.323.929.5.081.04.176.094.256.135 0 .013.014.013.014.013.2.121.4.256.592.391.054.027.108.067.162.094l.242.161c.094.081.2.162.31.243.148.121.3.242.444.35.108.108.216.189.31.3.148.135.3.27.431.4l.256.3a4.489 4.489 0 0 1 .309.377c.095.108.162.2.243.31.04.054.081.121.121.175.054.1.108.175.162.269s.134.2.188.31a6.1 6.1 0 0 1 .283.606.792.792 0 0 1 .067.162 5.608 5.608 0 0 1 .243.808c1.993-.3 3.945-.674 5.884-1.078a86.179 86.179 0 0 0 8.456-2.181c.768-.229 1.535-.458 2.289-.714a.644.644 0 0 1-.107-.094c-.35-.269-.674-.552-.983-.835-.081-.094-.175-.175-.256-.269a9.191 9.191 0 0 1-.821-.97 5.325 5.325 0 0 1-.485-.794c-.027-.04-.041-.081-.068-.121a5.889 5.889 0 0 1-.484-1.36l-.041-.121a.153.153 0 0 0-.013-.068 5.2 5.2 0 0 1-.041-1.71 7.767 7.767 0 0 1 3.69-5.238 10.372 10.372 0 0 1 .916-.579c.458-.269.942-.5 1.427-.727.148-.067.3-.135.458-.2.444-.175.9-.35 1.373-.512a.752.752 0 0 1 .189-.067 16.174 16.174 0 0 1 1.683-.485c.135-.027.256-.054.39-.081.526-.107 1.064-.215 1.589-.3a.7.7 0 0 1 .162-.027c.633-.094 1.279-.175 1.926-.215a.355.355 0 0 1 .121-.014c.606-.04 1.225-.067 1.831-.067h.162a28.749 28.749 0 0 1 3.878.283l.242.04c.4.067.821.135 1.212.216a2.489 2.489 0 0 0 .269.053c.391.1.781.189 1.158.283.108.027.2.054.31.081.391.121.781.242 1.158.377.067.027.135.04.2.067.464.156.895.344 1.326.533z"/>
                    <path id="Path_70911" d="M606.573 312.613v13.466a95.183 95.183 0 0 1-16.629 3.972v-13.465a95.185 95.185 0 0 0 16.629-3.973z" class="cls-20"/>
                    <path id="Path_70912" d="M558.313 316.586v13.465a95.623 95.623 0 0 1-16.643-3.972v-13.466l.067.014a87.039 87.039 0 0 0 8.537 2.424q2.868.666 5.817 1.171a.1.1 0 0 1 .068.014c.686.107 1.387.215 2.073.323z" class="cls-20"/>
                    <path id="Path_70913" d="M519.3 299.7v13.466a31.075 31.075 0 0 1-6.867-9.615v-13.465z" class="cls-20"/>
                    <path id="Path_70914" d="M524.758 284.991c.052-.061.11-.119.159-.181.118-.147.221-.3.326-.451.084-.122.169-.243.245-.368s.156-.273.228-.412.149-.3.214-.458c.053-.125.1-.25.147-.377a5.607 5.607 0 0 0 .156-.564c.024-.1.055-.207.073-.312a5.393 5.393 0 0 0 .083-.908 5.457 5.457 0 0 0-.085-.931c-.01-.054-.028-.106-.039-.16a5.65 5.65 0 0 0-.211-.768c-.012-.033-.027-.065-.04-.1a6.482 6.482 0 0 0-.374-.815l-.015-.024a7.213 7.213 0 0 0-.546-.841c-2.194-2.936-6.947-5.084-12.646-5.5v13.466l3.322.481a20.569 20.569 0 0 1 5.551 1.917 14.238 14.238 0 0 0 1.448-.9h.006c.051-.036.095-.075.145-.111a10.461 10.461 0 0 0 1.853-1.683z" class="cls-19"/>
                </g>
            </g>
            <g id="Group_79403">
                <path id="Path_70915" d="M632.128 541.308c-11.568 6.679-30.39 6.679-41.958 0l-30.1-17.376c-11.567-6.679-11.568-17.546 0-24.225l30.1-17.377c11.568-6.679 30.39-6.679 41.958 0l30.1 17.377c11.567 6.678 11.568 17.545 0 24.224z" class="cls-5"/>
                <path id="Path_70916" d="M651.739 511.823l-30.1 17.369a16.112 16.112 0 0 1-2.858 1.284 24.357 24.357 0 0 1-15.262 0 16.114 16.114 0 0 1-2.858-1.284l-30.1-17.369c-5.79-3.343-5.79-8.77 0-12.113l30.1-17.381a16.11 16.11 0 0 1 2.858-1.284 24.357 24.357 0 0 1 15.262 0 16.108 16.108 0 0 1 2.858 1.284l30.1 17.381c5.789 3.343 5.789 8.77 0 12.113z" class="cls-12"/>
                <path id="Path_70917" d="M570.564 505.763l30.1-17.377c5.793-3.344 15.186-3.344 20.979 0l30.1 17.377a9.806 9.806 0 0 1 3.377 3.028c1.995-3.052.878-6.628-3.377-9.084l-30.1-17.377c-5.793-3.345-15.186-3.345-20.979 0l-30.1 17.377c-4.255 2.456-5.372 6.032-3.377 9.084a9.806 9.806 0 0 1 3.377-3.028z" class="cls-13"/>
                <path id="Path_70918" d="M617.132 461.788v69.189a24.631 24.631 0 0 1-11.866 0v-69.189z" class="cls-14"/>
                <path id="Path_70919" d="M615.4 459.357c2.323 1.232 2.323 3.229 0 4.461a10.033 10.033 0 0 1-8.411 0c-2.323-1.232-2.323-3.229 0-4.461a10.04 10.04 0 0 1 8.411 0z" class="cls-15"/>
                <g id="Group_79402">
                    <path id="Path_70920" fill="url(#linear-gradient-25)" d="M640.1 486.911c0-2.838 3.693-5.186 8.455-5.528a18.812 18.812 0 0 0-4.166-5.813 15.262 15.262 0 0 1-12.752-.457c-3.481-2.014-3.742-5.177-.791-7.362a56.079 56.079 0 0 0-10.069-2.4c-.326 1.492-1.671 2.8-3.628 3.677v9.946a17.776 17.776 0 0 1 4.648 1.827c5.853 3.375 5.853 8.854 0 12.237a17.727 17.727 0 0 1-4.648 1.819 25.309 25.309 0 0 1-11.9 0 17.718 17.718 0 0 1-4.647-1.819c-5.854-3.383-5.854-8.862 0-12.237a17.768 17.768 0 0 1 4.647-1.827v-9.938c-1.957-.881-3.3-2.193-3.628-3.685a56.1 56.1 0 0 0-10.069 2.4c2.951 2.185 2.69 5.348-.791 7.362a15.28 15.28 0 0 1-12.76.457 18.778 18.778 0 0 0-4.158 5.813c4.762.342 8.447 2.69 8.447 5.528s-3.685 5.185-8.447 5.527A18.823 18.823 0 0 0 578 498.26a15.28 15.28 0 0 1 12.76.456c3.481 2.006 3.742 5.169.783 7.362a57.761 57.761 0 0 0 10.077 2.4c.326-1.5 1.671-2.812 3.628-3.693a15.41 15.41 0 0 1 11.9.008c1.957.873 3.3 2.185 3.628 3.685a57.476 57.476 0 0 0 10.069-2.4c-2.951-2.193-2.69-5.356.791-7.362a15.262 15.262 0 0 1 12.752-.456 18.856 18.856 0 0 0 4.166-5.822c-4.765-.338-8.454-2.682-8.454-5.527z"/>
                    <path id="Path_70921" d="M600.6 480.8a17.719 17.719 0 0 1 4.647-1.818v8.144a17.766 17.766 0 0 0-4.647 1.827 11.007 11.007 0 0 0-2.626 2.038c-3.029-3.273-2.157-7.44 2.626-10.191z" class="cls-17"/>
                    <path id="Path_70922" d="M624.418 490.987a11.334 11.334 0 0 0-2.625-2.038 17.774 17.774 0 0 0-4.648-1.827v-8.144a17.727 17.727 0 0 1 4.648 1.818c4.785 2.755 5.65 6.922 2.625 10.191z" class="cls-18"/>
                    <path id="Path_70923" d="M640.893 484.711a4.429 4.429 0 0 0-.331.51l-.008.014a3.838 3.838 0 0 0-.227.494l-.024.058a3.5 3.5 0 0 0-.128.466c-.007.032-.018.064-.024.1a3.294 3.294 0 0 0-.051.563 3.139 3.139 0 0 0 .048.522c.012.077.032.152.049.228s.044.17.071.255c.032.1.067.2.108.3.015.036.034.072.05.108a6.052 6.052 0 0 0 2.752 2.664 13.537 13.537 0 0 1 5.372-1.452v-8.153c-3.45.245-6.328 1.546-7.657 3.323z" class="cls-7"/>
                    <path id="Path_70924" d="M648.551 492.438v8.153a18.855 18.855 0 0 1-4.166 5.822v-8.153a18.856 18.856 0 0 0 4.166-5.822z" class="cls-8"/>
                    <path id="Path_70925" d="M644.385 498.26v8.153a15.262 15.262 0 0 0-12.752.456 6.341 6.341 0 0 0-.791.522c-2.715 2-2.706 4.827 0 6.84a57.573 57.573 0 0 1-10.069 2.406c-.6-2.756-4.655-4.884-9.579-4.884s-8.977 2.128-9.572 4.884a57.858 57.858 0 0 1-10.077-2.406c2.723-2.013 2.723-4.851 0-6.848a7.221 7.221 0 0 0-.783-.514 15.28 15.28 0 0 0-12.76-.456 18.822 18.822 0 0 1-4.158-5.822c1.289-.089 1.248-3.318 1.688-5.193A22.075 22.075 0 0 0 578 498.26a13.177 13.177 0 0 1 3.066-.93c.188.065.334.057.424-.065a.161.161 0 0 0 .065-.008 17.33 17.33 0 0 1 2.356-.171h.1c.367 0 .734.016 1.093.04a.307.307 0 0 1 .089.008c.392.025.783.074 1.166.131a.3.3 0 0 1 .09.016c.326.049.644.106.954.18.09.016.171.032.261.057a10.188 10.188 0 0 1 1.011.285.579.579 0 0 1 .114.041c.285.1.546.2.815.3a1.787 1.787 0 0 0 .18.082.755.755 0 0 1 .089.041 8.755 8.755 0 0 1 .881.448h.008a7.212 7.212 0 0 1 .636.408 6.119 6.119 0 0 1 1.386 1.3 4.828 4.828 0 0 1 .375.6c.024.057.057.115.082.172a3.79 3.79 0 0 1 .228.611.246.246 0 0 1 .016.074 2.88 2.88 0 0 1 .082.6 1.732 1.732 0 0 1 .008.2 3.231 3.231 0 0 1-.049.562c-.016.065-.033.139-.049.2a3.493 3.493 0 0 1-.122.408c-.033.081-.074.154-.106.236-.049.106-.1.2-.155.31-.049.081-.1.163-.155.244a3.607 3.607 0 0 1-.22.3c-.057.073-.106.147-.172.22a4.79 4.79 0 0 1-.456.457c-.033.032-.065.065-.106.1-.139.122-.285.244-.44.358l.024.008c.84.286 1.7.547 2.56.791.016.008.025.008.041.017.9.252 1.81.481 2.723.693.636.146 1.28.285 1.924.407.22.049.441.082.661.123.269.048.53.106.8.146.016 0 .032 0 .04.009.433.073.865.146 1.3.211.016-.065.041-.13.057-.187a2.816 2.816 0 0 1 .139-.416c0-.016.008-.024.016-.041.049-.106.09-.212.147-.309a1.306 1.306 0 0 1 .114-.188 2.867 2.867 0 0 1 .163-.261c.032-.041.065-.09.1-.138l.244-.294c.057-.065.114-.122.163-.179s.114-.106.171-.163a.347.347 0 0 1 .058-.057c.073-.074.154-.139.236-.212.065-.057.13-.106.2-.163s.163-.131.244-.188a1.772 1.772 0 0 1 .155-.106.575.575 0 0 0 .066-.041c.122-.081.236-.163.367-.236a.283.283 0 0 1 .073-.041c.212-.122.44-.245.677-.359a.061.061 0 0 1 .032-.016q.318-.159.661-.293c.048-.017.1-.033.138-.049.2-.082.408-.155.62-.221.065-.024.13-.048.195-.065.2-.065.408-.122.62-.171a1.007 1.007 0 0 1 .147-.041h.008c.228-.057.457-.106.7-.155a.373.373 0 0 1 .041-.008c.2-.041.408-.073.62-.106.04-.008.081-.008.122-.016h.016c.253-.041.506-.065.758-.09a26.493 26.493 0 0 0 3.009 0h.008c.253.025.5.049.75.09h.016c.033.008.066.008.1.016.212.033.424.065.636.106.017 0 .033.008.049.008.237.049.473.1.7.155h.008a1.223 1.223 0 0 0 .172.041c.2.057.391.106.578.163.074.025.156.049.229.073.2.066.391.139.587.212.049.017.106.041.163.066.2.081.408.171.6.261.033.016.065.032.106.048.2.1.375.2.563.3l.155.082a.008.008 0 0 0 .008.008c.122.073.244.155.359.236.032.017.065.041.1.057l.147.1c.057.049.122.1.188.147.089.073.179.147.269.212.065.065.13.114.187.179.09.082.18.163.261.245l.155.179a2.722 2.722 0 0 1 .188.228c.057.066.1.123.146.188.025.033.049.073.074.106.032.057.065.106.1.163s.081.122.114.188a3.665 3.665 0 0 1 .171.367.578.578 0 0 1 .041.1 3.311 3.311 0 0 1 .146.489c1.207-.179 2.389-.407 3.563-.652a52.012 52.012 0 0 0 5.12-1.321c.465-.138.93-.277 1.386-.432a.409.409 0 0 1-.065-.057c-.212-.163-.407-.334-.595-.505-.049-.057-.106-.106-.155-.163a5.678 5.678 0 0 1-.5-.587 3.367 3.367 0 0 1-.294-.481c-.016-.025-.024-.049-.041-.074a3.573 3.573 0 0 1-.293-.823l-.024-.074a.079.079 0 0 0-.009-.04 3.163 3.163 0 0 1-.024-1.036 4.7 4.7 0 0 1 2.234-3.171 6.26 6.26 0 0 1 .554-.351c.278-.163.571-.3.864-.44.09-.041.18-.082.278-.122.269-.106.546-.212.831-.31a.452.452 0 0 1 .114-.041 10.048 10.048 0 0 1 1.02-.294l.236-.048c.318-.066.644-.131.962-.18a.418.418 0 0 1 .1-.016c.383-.057.774-.106 1.166-.131a.227.227 0 0 1 .073-.008c.367-.024.742-.04 1.109-.04h.1a17.414 17.414 0 0 1 2.348.171l.147.024c.244.041.5.082.733.131a1.543 1.543 0 0 0 .163.032c.237.057.473.114.7.171l.187.049c.237.074.473.147.7.229.041.016.082.024.123.04.283.098.544.212.805.327z" class="cls-7"/>
                    <path id="Path_70926" d="M630.842 506.078v8.153a57.573 57.573 0 0 1-10.069 2.406v-8.154a57.476 57.476 0 0 0 10.069-2.405z" class="cls-8"/>
                    <path id="Path_70927" fill="#6fa2f7" d="M601.622 508.483v8.154a57.858 57.858 0 0 1-10.077-2.406v-8.153l.041.008a52.376 52.376 0 0 0 5.169 1.468q1.735.4 3.522.709c.016 0 .032 0 .04.009l1.256.2z"/>
                    <path id="Path_70928" fill="#6695e3" d="M578 498.26v8.153a18.822 18.822 0 0 1-4.158-5.822v-8.153z"/>
                    <path id="Path_70929" fill="url(#linear-gradient-30)" d="M581.3 489.354c.031-.037.066-.073.1-.11.072-.089.134-.181.2-.273.051-.074.1-.147.148-.223s.095-.165.138-.249.09-.184.13-.278c.032-.075.062-.151.089-.228a3.369 3.369 0 0 0 .094-.341c.015-.063.033-.125.044-.189a3.252 3.252 0 0 0 .051-.55 3.3 3.3 0 0 0-.052-.563c-.006-.033-.017-.065-.023-.1a3.669 3.669 0 0 0-.128-.466l-.024-.058a3.909 3.909 0 0 0-.227-.494l-.009-.014a4.419 4.419 0 0 0-.33-.51c-1.329-1.777-4.207-3.078-7.658-3.327v8.153l2.012.291a12.442 12.442 0 0 1 3.361 1.161 8.519 8.519 0 0 0 .876-.547c.031-.022.058-.045.088-.067a6.356 6.356 0 0 0 1.12-1.018z"/>
                </g>
            </g>
            <g id="Group_79404">
                <path id="Path_70930" d="M198.969 295.509a27.48 27.48 0 0 1-13.438-3.209l-63.941-36.917.779-1.351 63.941 36.917c6.98 4.031 18.338 4.032 25.319 0l58.721-33.9c7.408-4.278 19.465-4.278 26.877 0l28.707 16.575c6.981 4.03 18.339 4.03 25.319 0l131.8-76.1.78 1.351-131.8 76.094c-7.408 4.277-19.465 4.278-26.877 0L296.448 258.4c-6.981-4.03-18.339-4.03-25.319 0l-58.721 33.9a27.484 27.484 0 0 1-13.439 3.209z" class="cls-10"/>
            </g>
            <g id="Group_79405">
                <path id="Path_70931" d="M198.969 423.894a27.458 27.458 0 0 1-13.438-3.21l-63.941-36.917.779-1.349 63.941 36.917c6.98 4.03 18.338 4.03 25.319 0l58.721-33.9c7.408-4.279 19.465-4.279 26.877 0l28.707 16.575c6.981 4.031 18.339 4.028 25.319 0l131.8-76.1.78 1.35-131.8 76.094c-7.408 4.279-19.465 4.279-26.877 0l-28.708-16.574c-6.982-4.029-18.34-4.029-25.319 0l-58.721 33.9a27.484 27.484 0 0 1-13.439 3.214z" class="cls-10"/>
            </g>
            <g id="Group_79406">
                <path id="Path_70932" d="M198.969 282.3a27.479 27.479 0 0 1-13.438-3.208l-63.941-36.918a.78.78 0 1 1 .779-1.351l63.941 36.917c6.98 4.031 18.338 4.032 25.319 0l58.721-33.9c7.408-4.278 19.465-4.278 26.877 0l28.707 16.575c6.981 4.031 18.339 4.03 25.319 0l131.8-76.095a.78.78 0 1 1 .78 1.351l-131.8 76.094c-7.408 4.278-19.465 4.278-26.877 0l-28.707-16.575c-6.981-4.031-18.339-4.03-25.319 0l-58.721 33.9a27.483 27.483 0 0 1-13.44 3.21z" class="cls-10"/>
            </g>
            <g id="Group_79415">
                <path id="Path_70933" d="M275.783 354.742l-60.9 35.16c-2.71 1.565-4.907.3-4.908-2.833v-50.212a10.849 10.849 0 0 1 4.907-8.5l60.9-35.161c2.711-1.565 4.908-.3 4.908 2.834v50.211a10.847 10.847 0 0 1-4.907 8.501z" class="cls-6"/>
                <path id="Path_70934" fill="#5f69ef" d="M276.908 355.866l-60.9 35.161c-2.711 1.565-4.908.3-4.908-2.834v-50.211a10.844 10.844 0 0 1 4.908-8.5l60.9-35.161c2.71-1.565 4.908-.3 4.908 2.833v50.212a10.847 10.847 0 0 1-4.908 8.5z"/>
                <g id="Group_79407">
                    <path id="Path_70935" d="M215.047 373.347a.264.264 0 0 1-.132-.492l61.481-35.5a.264.264 0 0 1 .264.457l-61.481 35.5a.261.261 0 0 1-.132.035z" class="cls-27"/>
                </g>
                <g id="Group_79408">
                    <path id="Path_70936" d="M225.63 372.117a3.153 3.153 0 0 1-.9-.133c-1.93-.576-3.1-2.9-4.236-5.15-.983-1.949-2-3.965-3.277-4.347a2.236 2.236 0 0 0-1.77.353.791.791 0 1 1-.79-1.37 3.737 3.737 0 0 1 3.014-.5c1.929.575 3.1 2.9 4.236 5.15.982 1.95 2 3.965 3.275 4.347a2.256 2.256 0 0 0 1.77-.353c2.782-1.607 4.3-7.815 5.775-13.82 1.622-6.618 3.155-12.869 6.52-14.812a3.034 3.034 0 0 1 2.668-.328c2.178.818 3.366 4.295 4.624 7.975 1.034 3.023 2.205 6.45 3.684 7a1.448 1.448 0 0 0 1.321-.216c2.83-1.634 4.342-5.588 5.8-9.412 1.56-4.081 3.174-8.3 6.491-10.216 3.708-2.141 5.643.683 7.2 2.953 1.7 2.482 2.774 3.82 5.1 2.476a.791.791 0 1 1 .79 1.37c-3.706 2.137-5.642-.683-7.2-2.952-1.7-2.481-2.772-3.825-5.1-2.476-2.831 1.634-4.342 5.587-5.8 9.41-1.56 4.082-3.174 8.3-6.491 10.218a3.044 3.044 0 0 1-2.668.327c-2.178-.818-3.367-4.294-4.625-7.974-1.034-3.024-2.205-6.451-3.683-7.005a1.438 1.438 0 0 0-1.321.216c-2.781 1.606-4.3 7.814-5.774 13.818-1.622 6.619-3.155 12.87-6.521 14.814a4.222 4.222 0 0 1-2.112.637z" class="cls-27"/>
                </g>
                <path id="Path_70937" fill="#54d6ff" d="M277.865 336.816a2.955 2.955 0 0 1-1.337 2.316c-.738.426-1.337.081-1.337-.772a2.956 2.956 0 0 1 1.337-2.316c.739-.426 1.337-.081 1.337.772z"/>
                <path id="Path_70938" fill="#42cdff" d="M218.852 332.51a2.027 2.027 0 0 1-.916 1.587c-.506.292-.916.055-.916-.529a2.024 2.024 0 0 1 .916-1.587c.506-.293.916-.056.916.529zm2.464-2.48a2.025 2.025 0 0 0-.917 1.587c0 .584.411.821.917.528a2.023 2.023 0 0 0 .916-1.586c0-.585-.41-.822-.916-.529zm3.379-1.952a2.027 2.027 0 0 0-.916 1.587c0 .585.41.822.916.529a2.024 2.024 0 0 0 .916-1.587c0-.584-.411-.821-.911-.529z"/>
                <g id="Group_79411">
                    <g id="Group_79409">
                        <path id="Path_70939" d="M263.583 324.366c-2.406 0-3.96-1.915-3.96-4.879a13.344 13.344 0 0 1 6.121-10.6A5.941 5.941 0 0 1 268.7 308c2.4 0 3.959 1.914 3.959 4.878a13.348 13.348 0 0 1-6.121 10.6 5.945 5.945 0 0 1-2.955.888zm5.117-14.786a4.454 4.454 0 0 0-2.162.676 11.79 11.79 0 0 0-5.33 9.231c0 2.064.888 3.3 2.378 3.3a4.468 4.468 0 0 0 2.161-.676 11.8 11.8 0 0 0 5.33-9.232c-.003-2.068-.892-3.299-2.377-3.299z" class="cls-30"/>
                    </g>
                    <g id="Group_79410">
                        <path id="Path_70940" d="M263.58 325.163a4.51 4.51 0 0 1-2.281-.6c-1.591-.919-2.467-2.722-2.467-5.077a14.208 14.208 0 0 1 6.516-11.287 1.582 1.582 0 1 1 1.582 2.741 11.088 11.088 0 0 0-4.93 8.547 1.975 1.975 0 0 0 3.352 1.936 11.091 11.091 0 0 0 4.935-8.547 1.582 1.582 0 1 1 3.164 0 14.215 14.215 0 0 1-6.517 11.288 6.772 6.772 0 0 1-3.354.999z" class="cls-31"/>
                    </g>
                </g>
                <g id="Group_79414">
                    <g id="Group_79412">
                        <path id="Path_70941" d="M243.9 335.729c-2.406 0-3.96-1.914-3.96-4.878a13.347 13.347 0 0 1 6.121-10.6 5.935 5.935 0 0 1 2.953-.888c2.406 0 3.96 1.915 3.96 4.879a13.347 13.347 0 0 1-6.121 10.6 5.944 5.944 0 0 1-2.953.887zm5.114-14.786a4.468 4.468 0 0 0-2.162.676 11.8 11.8 0 0 0-5.33 9.232c0 2.064.889 3.3 2.378 3.3a4.458 4.458 0 0 0 2.162-.676 11.8 11.8 0 0 0 5.33-9.231c-.001-2.068-.892-3.301-2.379-3.301z" class="cls-30"/>
                    </g>
                    <g id="Group_79413">
                        <path id="Path_70942" d="M243.9 336.527a4.5 4.5 0 0 1-2.28-.6c-1.592-.919-2.468-2.721-2.468-5.076a14.214 14.214 0 0 1 6.517-11.288 1.582 1.582 0 0 1 1.582 2.741 11.09 11.09 0 0 0-4.935 8.547 1.976 1.976 0 0 0 3.353 1.935 11.09 11.09 0 0 0 4.935-8.546 1.582 1.582 0 0 1 3.164 0 14.214 14.214 0 0 1-6.517 11.287 6.759 6.759 0 0 1-3.351 1z" class="cls-31"/>
                    </g>
                </g>
            </g>
            <ellipse id="Ellipse_64" cx="74.283" cy="42.888" fill="url(#linear-gradient-32)" rx="74.283" ry="42.888" transform="translate(271.937 126.034)"/>
            <ellipse id="Ellipse_65" cx="74.283" cy="42.888" fill="url(#linear-gradient-33)" rx="74.283" ry="42.888" transform="translate(271.937 115.695)"/>
            <path id="Path_70943" fill="#72e8fd" d="M391.191 182.19c-.641.393-1.3.807-1.985 1.2a64.51 64.51 0 0 1-8.23 3.97c-12.179 4.921-26.8 6.968-40.983 6.12a99.931 99.931 0 0 1-13.274-1.675 76.437 76.437 0 0 1-23.469-8.415 45.748 45.748 0 0 1-10.38-7.982 28.652 28.652 0 0 1-5.149-7.32c-5.748-11.807-.558-25.019 15.529-34.324 23.737-13.689 62.218-13.689 85.956 0 23.034 13.316 23.694 34.655 1.985 48.426z"/>
            <path id="Path_70944" fill="url(#linear-gradient-34)" d="M303.25 142.505c23.737-13.689 62.218-13.689 85.956 0 9.932 5.742 15.694 12.975 17.307 20.45 2.244-10.376-3.519-21.221-17.307-29.191-23.738-13.689-62.219-13.689-85.956 0-13.775 7.967-19.533 18.8-17.3 29.16 1.622-7.461 7.383-14.683 17.3-20.419z"/>
            <path id="Path_70945" d="M350.7 160.135l-9.594 5.539-42.976-24.813 9.594-5.539z" class="cls-36"/>
            <path id="Path_70946" d="M348.451 166.806l-2.44.372-8.457 1.3-12.8 1.985-31.884 4.942a28.652 28.652 0 0 1-5.149-7.32l33.167-5.128 12.241-1.9 6.658-1.034 5.128-.786h.02l1.551 3.329 1.53 3.329h.021z" class="cls-36"/>
            <path id="Path_70947" d="M353.806 163.705l-.641 1.406-2.275 4.88-3.391 7.3-7.506 16.19a99.931 99.931 0 0 1-13.274-1.675l7.547-16.211 3.288-7.113 1.778-3.825 1.385-2.978 5.748.889h.021l5.748.889z" class="cls-36"/>
            <path id="Path_70948" d="M391.191 182.19c-.641.393-1.3.807-1.985 1.2a64.51 64.51 0 0 1-8.23 3.97L359.7 175.077l-8.809-5.086-4.879-2.813-3.764-2.171 4.218-2.44h.021l4.218-2.44 1.138-.661 1.778 1.013 6.2 3.6 9.015 5.211z" class="cls-36"/>
            <path id="Path_70949" d="M348.02 165.9l-3.511-7.566 58.706-9.082 3.511 7.567z" class="cls-36"/>
            <path id="Path_70950" d="M352.242 163.464l-13.105-2.027 15.73-33.895 13.105 2.027z" class="cls-36"/>
            <ellipse id="Ellipse_66" cx="25.324" cy="14.621" class="cls-36" rx="25.324" ry="14.621" transform="translate(320.896 148.098)"/>
            <path id="Path_70951" fill="url(#linear-gradient-35)" d="M355.77 168.233c-.061.041-.124.062-.186.1-5.231 2.9-13.5 2.9-18.734 0-.062-.041-.124-.062-.186-.1-5.272-3.04-5.272-7.981 0-11.021.062-.041.124-.062.186-.1 5.232-2.916 13.5-2.916 18.734 0 .062.041.125.062.186.1 5.273 3.04 5.273 7.981 0 11.021z"/>
            <path id="Path_70952" fill="#697efb" d="M346.218 162.246a15.475 15.475 0 0 1-7.481-1.73c-1.385-.8-1.888-1.594-1.888-1.932s.5-1.133 1.888-1.933a17.046 17.046 0 0 1 14.965 0c1.385.8 1.888 1.594 1.888 1.933s-.5 1.133-1.888 1.932a15.479 15.479 0 0 1-7.484 1.73z"/>
            <path id="Path_70953" fill="url(#linear-gradient-36)" d="M355.584 117.739v50.6c-5.231 2.9-13.5 2.9-18.734 0v-50.6z"/>
            <path id="Path_70954" d="M346.218 121.408a15.475 15.475 0 0 1-7.481-1.73c-1.385-.8-1.888-1.594-1.888-1.932s.5-1.133 1.888-1.933a17.046 17.046 0 0 1 14.965 0c1.385.8 1.888 1.594 1.888 1.933s-.5 1.133-1.888 1.932a15.479 15.479 0 0 1-7.484 1.73z" class="cls-7"/>
            <path id="Path_70955" fill="#fff" d="M77.236 526.566c24.141 11.308 45.732 17.457 65.344 19.644v-91.684L77.237 416.8z" opacity="0.61"/>
            <path id="Path_70956" fill="#fff" d="M207.923 538.317V416.798l-65.344 37.728v91.683a139.732 139.732 0 0 0 65.344-7.892z" opacity="0.63"/>
            <path id="Path_70957" fill="#fff" d="M207.925 416.8l-65.346 37.728L77.233 416.8l65.346-37.728z" opacity="0.83"/>
        </g>
    </g>
</svg>
