<svg xmlns="http://www.w3.org/2000/svg" width="120" height="120" viewBox="0 0 120 120">
    <defs>
        <linearGradient id="linear-gradient" x1=".5" x2=".5" y2="1" gradientUnits="objectBoundingBox">
            <stop offset="0" stop-color="#77cdd6"/>
            <stop offset="1" stop-color="#f5ffe9"/>
        </linearGradient>
        <style>
            .cls-2{fill:#fff}
        </style>
    </defs>
    <g id="Group_80709" transform="translate(-1320 -992)">
        <path id="com_body_connect_bg" fill="url(#linear-gradient)" d="M-15156-18255v120l-120-120z" transform="translate(16596.002 19247.004)"/>
        <g id="com_body_connect_ic" transform="rotate(-90 1218.557 -313.07)">
            <path id="Path_65398" d="M47.012-140.678c-.146.655-.252 1.321-.446 1.961a9.586 9.586 0 0 1-2.447 4.056c-1.56 1.557-3.066 3.172-4.7 4.648a9.645 9.645 0 0 1-8.941 2.281.539.539 0 0 1-.115-.045c-.023-.011-.043-.029-.19-.131a2.293 2.293 0 0 0 .409-.259q5-4.99 9.992-9.991a4.936 4.936 0 0 0-.96-7.768 4.925 4.925 0 0 0-6.063.806q-4.986 4.976-9.959 9.965c-.1.105-.162.258-.291.35a8.178 8.178 0 0 1-.381-3.443 10.036 10.036 0 0 1 3.159-6.446c1.475-1.426 2.854-2.957 4.379-4.324a9.425 9.425 0 0 1 9.6-2.1 9.571 9.571 0 0 1 6.7 7.252c.1.4.166.8.248 1.205z" class="cls-2" transform="translate(-146.525)"/>
            <path id="Path_65399" d="M-132.9 37.558a19.174 19.174 0 0 1-2.072-.5 9.594 9.594 0 0 1-6.756-8.178 9.493 9.493 0 0 1 2.886-8.335c1.553-1.562 3.058-3.182 4.7-4.643a9.6 9.6 0 0 1 8.847-2.2 3.446 3.446 0 0 1 .36.149 2.668 2.668 0 0 0-.461.284q-5 4.989-9.993 9.99a4.932 4.932 0 0 0 1.1 7.846 4.912 4.912 0 0 0 5.92-.881q4.988-4.974 9.96-9.964c.1-.105.163-.257.293-.349a8.165 8.165 0 0 1 .382 3.4 10.12 10.12 0 0 1-3.22 6.549c-1.4 1.347-2.737 2.755-4.134 4.1a9.521 9.521 0 0 1-5.6 2.649 1.238 1.238 0 0 0-.232.076z" class="cls-2" transform="translate(0 -146.835)"/>
            <path id="Path_65400" d="M-22.975-18A2.319 2.319 0 0 1-25-19.5a2.34 2.34 0 0 1 .5-2.71c1.2-1.233 2.429-2.439 3.646-3.656q3.958-3.958 7.918-7.913a2.473 2.473 0 0 1 4.127.926 2.411 2.411 0 0 1-.641 2.613q-2.333 2.341-4.673 4.675-3.374 3.374-6.746 6.749a2.683 2.683 0 0 1-2.106.816z" class="cls-2" transform="translate(-103.728 -104.167)"/>
        </g>
    </g>
</svg>
