<svg xmlns="http://www.w3.org/2000/svg" width="120" height="120" viewBox="0 0 120 120">
    <defs>
        <linearGradient id="linear-gradient" x1=".5" x2=".5" y2="1" gradientUnits="objectBoundingBox">
            <stop offset="0" stop-color="#ffc1ae"/>
            <stop offset="1" stop-color="#fff9f1"/>
        </linearGradient>
        <style>
            .cls-2{fill:#fff}
        </style>
    </defs>
    <g id="Group_80718" transform="translate(-1320 -1293)">
        <path id="com_body_connecting_bg" fill="url(#linear-gradient)" d="M-15156-18255v120l-120-120z" transform="translate(16596.002 19548.004)"/>
        <g id="com_body_connecting_ic" transform="rotate(-90 1774.572 -218.155)">
            <path id="Path_65403" d="M379.87-600.085c-.085.434-.153.871-.257 1.3a9.374 9.374 0 0 1-2.526 4.5q-3.075 3.078-6.153 6.153c-.473.472-.818.468-1.3-.009l-2.2-2.2a.754.754 0 0 1 .008-1.264c1.948-1.95 3.9-3.891 5.843-5.85a4.559 4.559 0 0 0-.358-6.8 4.579 4.579 0 0 0-6.108.356c-1.931 1.915-3.849 3.844-5.773 5.767-.54.54-.86.543-1.4.008q-1.087-1.084-2.17-2.17a.742.742 0 0 1-.006-1.216c2.127-2.128 4.207-4.306 6.4-6.365a9 9 0 0 1 9.351-2.159 9.139 9.139 0 0 1 6.422 7.018c.083.346.144.7.216 1.046z" class="cls-2" transform="translate(-133.798)"/>
            <path id="Path_65404" d="M217.69-437.311c-.56-.12-1.132-.2-1.676-.366a9.162 9.162 0 0 1-6.753-7.461 9.136 9.136 0 0 1 2.761-8.515q2.858-2.861 5.719-5.719c.548-.548.85-.549 1.394-.006l2.119 2.119c.489.49.491.836.008 1.32-1.872 1.873-3.754 3.735-5.614 5.62a4.56 4.56 0 0 0 1.106 7.243 4.582 4.582 0 0 0 5.439-.88q2.739-2.725 5.465-5.463c.57-.57.87-.568 1.448.01l2.119 2.119c.449.451.457.8.018 1.239q-2.985 2.989-5.977 5.972a9.248 9.248 0 0 1-5.64 2.7 1 1 0 0 0-.2.066z" class="cls-2" transform="translate(0 -136.193)"/>
            <path id="Path_65405" d="M455.085-295.118a1.512 1.512 0 0 1-.922-1.179c-.362-1.541-.76-3.074-1.145-4.61a1.127 1.127 0 0 1 .314-1.22 1.014 1.014 0 0 1 1.109-.2 1.033 1.033 0 0 1 .649.724c.43 1.7.868 3.394 1.278 5.1.155.642-.117 1.04-.851 1.385z" class="cls-2" transform="translate(-220.351 -278.385)"/>
            <path id="Path_65406" d="M524.262-363.493c-.482.8-.8.93-1.715.7q-2.3-.577-4.6-1.15a1.156 1.156 0 0 1-.961-.99 1.012 1.012 0 0 1 .563-1.041 1.621 1.621 0 0 1 .9-.09c1.644.382 3.278.808 4.917 1.214a1.305 1.305 0 0 1 .9.851z" class="cls-2" transform="translate(-278.19 -220.845)"/>
            <path id="Path_65407" d="M491.164-329.453a1.254 1.254 0 0 1-.739 1.038 1.056 1.056 0 0 1-1.225-.254c-.871-.863-1.736-1.733-2.6-2.6-.416-.417-.837-.829-1.249-1.25a1.1 1.1 0 0 1-.062-1.606 1.088 1.088 0 0 1 1.6.065c1.278 1.272 2.559 2.542 3.819 3.831a3.659 3.659 0 0 1 .456.776z" class="cls-2" transform="translate(-249.267 -249.437)"/>
            <path id="Path_65408" d="M254.494-566.164a2.347 2.347 0 0 1 .642.356c1.316 1.285 2.614 2.588 3.907 3.9a1.083 1.083 0 0 1 .025 1.554 1.083 1.083 0 0 1-1.579-.028q-1.946-1.93-3.877-3.875a1.063 1.063 0 0 1-.26-1.223 1.137 1.137 0 0 1 1.142-.684z" class="cls-2" transform="translate(-39.916 -40.076)"/>
            <path id="Path_65409" d="M314.229-610.069a1.141 1.141 0 0 1 1.08.944q.549 2.2 1.094 4.4c.052.209.113.418.147.63a1.08 1.08 0 0 1-.837 1.277 1.065 1.065 0 0 1-1.266-.8c-.372-1.415-.718-2.836-1.075-4.255-.067-.267-.148-.532-.2-.8a1.106 1.106 0 0 1 1.057-1.396z" class="cls-2" transform="translate(-94.018 -.406)"/>
            <path id="Path_65410" d="M210.5-506.2c.395.1.94.232 1.485.368 1.242.311 2.486.615 3.724.939a1.067 1.067 0 0 1 .816 1.022 1.049 1.049 0 0 1-.707 1.025 1.6 1.6 0 0 1-.773.02c-1.63-.389-3.255-.8-4.88-1.212a1.127 1.127 0 0 1-.911-1.207 1.141 1.141 0 0 1 1.246-.955z" class="cls-2" transform="translate(-.144 -94.254)"/>
        </g>
    </g>
</svg>
