<svg xmlns="http://www.w3.org/2000/svg" width="120" height="120" viewBox="0 0 120 120">
    <defs>
        <linearGradient id="sjlg78wzqa" x1=".5" x2=".5" y2="1" gradientUnits="objectBoundingBox">
            <stop offset="0" stop-color="#c1c1c1"/>
            <stop offset="1" stop-color="#efefef"/>
        </linearGradient>
    </defs>
    <g>
        <path fill="url(#sjlg78wzqa)" d="M-15268.793-18250.32a19.078 19.078 0 0 0-7.209 13.445v101.8l120-119.934h-98.875s-6.842-.981-13.916 4.689z" transform="translate(20980.002 17541.07) translate(-5704 714)"/>
        <g>
            <path fill="#fff" d="M1378.294 241.932a15.95 15.95 0 0 1-.424 4.108c-.167.8-.042 1.176.736 1.45a14.3 14.3 0 0 1 5.439 3.185 6.02 6.02 0 0 1-.061 9.2 13.014 13.014 0 0 1-5.125 2.994c-1.113.348-1.126.9-.922 1.926a17.231 17.231 0 0 1 .117 6.707c-.763 3.933-3.575 5.66-6.966 4.254a14.248 14.248 0 0 1-5.1-3.587c-.62-.678-1.021-.711-1.668-.017a12.927 12.927 0 0 1-5.906 3.853c-2.971.83-5.319-.779-6.078-4.1a16.747 16.747 0 0 1 .072-7.366c.2-.941.03-1.35-.836-1.624a14.485 14.485 0 0 1-4.768-2.612c-3.573-2.905-3.534-7.274.092-10.223a15.215 15.215 0 0 1 4.78-2.6c.775-.261.92-.619.749-1.434a17.463 17.463 0 0 1-.117-7.368c.758-3.5 3.217-5.143 6.338-4.165a13.728 13.728 0 0 1 5.769 3.871c.564.594.893.591 1.469 0 1.931-1.965 4.033-3.642 6.72-4.057 2.559-.4 4.509 1.022 5.257 3.811a11.079 11.079 0 0 1 .433 3.794zm-13.188 19.535c2.417.751 3.808-.369 4.943-2.714 1.724-3.562 1.754-3.528-.03-7.092-1.089-2.176-2.4-3.1-4.693-2.931-4.237.313-2.93-.586-5.234 3.442-1.74 3.042-1.577 3.06-.011 6.234 1.138 2.305 2.389 4.085 5.026 3.061zm-9.99-19.636a19.114 19.114 0 0 0 .349 3.769c.071.473.207.719.8.667 2.509-.219 4.747-.885 5.986-3.651a1.176 1.176 0 0 1 .234-.31c.421-.447.5-.84-.044-1.278a33.332 33.332 0 0 0-2.617-2.189c-1.062-.687-2.234-1.64-3.508-.884-1.363.806-1.137 2.445-1.199 3.876zm20.08-.117c-.018-.363-.005-1-.088-1.619-.29-2.182-1.319-2.844-3.164-2.067a12.192 12.192 0 0 0-3.38 2.322c-1.318 1.194-1.312 1.184-.243 2.6.468.618.894 1.277 1.343 1.914.219.312.383.681.806.74 1.385.195 3.023 1 4.071.433.859-.465.615-2.617.659-4.323zm-20.038 26.786c0 .542-.044 1.089.008 1.625.236 2.417 1.3 3.123 3.321 2.249a14.379 14.379 0 0 0 4.02-2.992c.393-.373.424-.642.07-1.1-.743-.953-1.436-1.957-2.126-2.96a1.035 1.035 0 0 0-.78-.521c-1.085-.142-2.166-.333-3.238-.559-.6-.127-.9.066-.995.755a17.85 17.85 0 0 0-.28 3.503zm20.048-.153c-.04-.536-.072-1.3-.161-2.064-.252-2.132-.261-2.128-2.169-1.8a8.5 8.5 0 0 1-1.566.218 1.981 1.981 0 0 0-1.918 1.315c-.512 1.111-2.132 1.836-1.715 3.063.386 1.133 1.7 1.871 2.769 2.525 1.122.684 2.319 1.7 3.6.89 1.302-.815 1.099-2.479 1.16-4.147zm-20.086-13.1c-.513-1.493-1-2.967-1.533-4.425-.112-.308-.418-.207-.648-.121a12.337 12.337 0 0 0-4.7 2.708c-1.306 1.306-1.285 2.448.059 3.731a12.966 12.966 0 0 0 4.608 2.629c.225.083.532.263.649-.052.545-1.494 1.055-3.005 1.565-4.474zm27.921-.061a2.075 2.075 0 0 0-.588-1.337 11.572 11.572 0 0 0-5.143-3.165c-.484-.181-.611.125-.754.567-.37 1.142-.781 2.268-1.2 3.387a1.409 1.409 0 0 0-.028 1.141c.46 1.149.871 2.324 1.249 3.509.148.467.289.7.767.515a13.187 13.187 0 0 0 4.8-2.8 2.9 2.9 0 0 0 .898-1.822zm-18.7-9.91a2.914 2.914 0 0 0 1.523-.025c-.682-1.32-.682-1.32-1.518.02zm-7.357 14.093c-.268.488-.57.95-.328 1.4.223.412.7.268 1.148.16zm16.3.048l-.8 1.5c.444.125.915.259 1.139-.141.252-.444.004-.922-.333-1.364zm-15.371-10.08c-1.643.393-1.643.393-.855 1.629zm15.372 1.7c.667-1.4.667-1.4-.863-1.6zm-8.994 14.085c.9 1.436.917 1.436 1.652 0z" transform="translate(20980.002 17541.07) translate(-20966.42 -17529) translate(-1344.152 -234.241)"/>
        </g>
    </g>
</svg>
