<svg xmlns="http://www.w3.org/2000/svg" width="43.002" height="52" viewBox="0 0 43.002 52">
    <defs>
        <style>
            .cls-1{fill:#707070}
        </style>
    </defs>
    <g id="com_body_archive_ic" transform="translate(-85.361 -175)">
        <path id="Path_72699" d="M121.25 175a16.784 16.784 0 0 1 2.564.853 7.709 7.709 0 0 1 4.51 7.095c.071 5.855.024 11.712.02 17.569a2.027 2.027 0 1 1-4.05-.029v-17.061a3.982 3.982 0 0 0-2.3-3.908 4.741 4.741 0 0 0-1.947-.437c-6.081-.032-12.163-.025-18.244-.016a4.023 4.023 0 0 0-4.1 3.037 4.993 4.993 0 0 0-.166 1.3q-.014 13.532-.005 27.064a4.066 4.066 0 0 0 3.057 4.194 4.741 4.741 0 0 0 1.2.147q9.1.014 18.193 0a4.049 4.049 0 0 0 4.146-3.048 6.179 6.179 0 0 0 .164-1.15 2.028 2.028 0 0 1 4.051.109 8.113 8.113 0 0 1-6.669 8.025c-.353.059-.427.182-.436.508a8.127 8.127 0 0 1-6.811 7.644 1.343 1.343 0 0 0-.272.1H92.462a.634.634 0 0 0-.172-.09 8.061 8.061 0 0 1-6.92-8.106q-.018-13.784 0-27.568a8.052 8.052 0 0 1 6.259-7.9c.6-.142 1.217-.191 1.827-.283.007-.058.016-.108.019-.158a7.936 7.936 0 0 1 4.669-7.108 17.079 17.079 0 0 1 2.426-.788zm-27.775 12.217a4.029 4.029 0 0 0-4.048 4.16q-.024 13.682 0 27.365a4.042 4.042 0 0 0 1.649 3.376 4.4 4.4 0 0 0 2.758.821h18.444a13.525 13.525 0 0 0 1.463-.085 3.939 3.939 0 0 0 3.4-3.977H101.341a6.882 6.882 0 0 1-2.987-.665 7.845 7.845 0 0 1-4.857-7.442c-.047-7.649-.016-15.3-.016-22.948z" class="cls-1"/>
        <path id="Path_72700" d="M184.944 284.819c-2.379 0-4.759.005-7.138 0a2.027 2.027 0 0 1-.516-4 1.977 1.977 0 0 1 .5-.059h14.378a2.026 2.026 0 0 1 .514 3.989 2.983 2.983 0 0 1-.75.067q-3.495.008-6.988.003z" class="cls-1" transform="translate(-74.068 -86.662)"/>
        <path id="Path_72701" d="M184.994 239.819c-2.4 0-4.792.005-7.188 0a2.028 2.028 0 1 1-.012-4.055h14.377a2.026 2.026 0 0 1 .509 3.989 2.949 2.949 0 0 1-.75.067q-3.469.004-6.936-.001z" class="cls-1" transform="translate(-74.069 -49.787)"/>
        <path id="Path_72702" d="M180.905 329.8c-1.029 0-2.059.009-3.088 0a2.027 2.027 0 0 1-.018-4.054q3.113-.019 6.226 0a2.028 2.028 0 0 1 .018 4.055h-.1z" class="cls-1" transform="translate(-74.103 -123.515)"/>
    </g>
</svg>
