<svg xmlns="http://www.w3.org/2000/svg" width="80" height="80" viewBox="0 0 80 80">
    <g>
        <path fill="#fff" d="M55.4 33.324h-9.866v-9.553a3.887 3.887 0 0 0-6.634-2.749L19.383 40.537a3.886 3.886 0 0 0 0 5.5L38.9 65.55a3.887 3.887 0 0 0 6.634-2.75v-8.09h4.689c4.154 0 7.192 1.385 8.576 5.3.711 2.011 1.059 5.045-.452 6.682a15.528 15.528 0 0 0-3.139 3.851c-.7 1.438-.468 4.083 1.635 3.933.525-.038 1.045-.092 1.557-.171a20.6 20.6 0 0 0-3-40.985z" transform="translate(7910 -2077) translate(-7917.244 2070.125)"/>
    </g>
</svg>
